<?xml version="1.0" encoding="UTF-8" standalone="no"?>
<svg
   width="24"
   height="24"
   viewBox="0 0 24 24"
   version="1.1"
   xml:space="preserve"
   style="clip-rule:evenodd;fill-rule:evenodd;stroke-linejoin:round;stroke-miterlimit:2"
   id="svg21"
   sodipodi:docname="export-file.svg"
   inkscape:version="1.2.2 (b0a8486541, 2022-12-01)"
   xmlns:inkscape="http://www.inkscape.org/namespaces/inkscape"
   xmlns:sodipodi="http://sodipodi.sourceforge.net/DTD/sodipodi-0.dtd"
   xmlns="http://www.w3.org/2000/svg"
   xmlns:svg="http://www.w3.org/2000/svg"><defs
   id="defs21" /><sodipodi:namedview
   id="namedview21"
   pagecolor="#505050"
   bordercolor="#eeeeee"
   borderopacity="1"
   inkscape:showpageshadow="0"
   inkscape:pageopacity="0"
   inkscape:pagecheckerboard="0"
   inkscape:deskcolor="#505050"
   inkscape:zoom="19.463014"
   inkscape:cx="9.1198617"
   inkscape:cy="20.397663"
   inkscape:window-width="1920"
   inkscape:window-height="1008"
   inkscape:window-x="0"
   inkscape:window-y="0"
   inkscape:window-maximized="1"
   inkscape:current-layer="svg21"
   showgrid="false" />
    
    
<path
   id="rect2"
   style="fill:#cbffed;fill-opacity:1;stroke:none;stroke-width:4.67213;stroke-linecap:round;stroke-linejoin:round;stroke-dasharray:none;stroke-opacity:1;paint-order:stroke fill markers"
   d="m 11.940651,22.407475 c 2.361079,0 4.321456,-1.961493 4.321456,-4.322571 v -2.410859 h -3.841294 v 2.410859 c 0,0.299054 -0.181107,0.480161 -0.480162,0.480161 h -7.61808 c -0.299054,0 -0.4801613,-0.181107 -0.4801613,-0.480161 V 5.9133639 c 0,-0.2990546 0.1811073,-0.480162 0.4801613,-0.480162 h 7.61808 c 0.299055,0 0.480162,0.1811074 0.480162,0.480162 v 2.4119747 h 3.841294 V 5.9133639 c 0,-2.3610786 -1.960377,-4.3214553 -4.321456,-4.3214553 H 4.322571 C 1.961493,1.5919086 -3.2e-7,3.5522853 -3.2e-7,5.9133639 V 18.084904 c 0,2.361078 1.96149332,4.322571 4.32257132,4.322571 z"
   sodipodi:nodetypes="ssccssssssssccsssssss" /><path
   id="path1"
   style="fill:#cbffed;fill-opacity:1;stroke:none;stroke-width:4.82323;stroke-linecap:round;stroke-linejoin:round;stroke-dasharray:none;stroke-opacity:1;paint-order:stroke fill markers"
   d="M 18.392045,6.4975524 V 10.563392 H 6.9669997 V 12 13.43661 H 18.392045 v 4.065838 L 24,12 Z" /></svg>
