<?xml version="1.0" encoding="UTF-8" standalone="no"?>
<svg
   width="24"
   height="24"
   viewBox="0 0 24 24"
   version="1.1"
   xml:space="preserve"
   style="clip-rule:evenodd;fill-rule:evenodd;stroke-linejoin:round;stroke-miterlimit:2"
   id="svg21"
   sodipodi:docname="folder.svg"
   inkscape:version="1.2.2 (b0a8486541, 2022-12-01)"
   xmlns:inkscape="http://www.inkscape.org/namespaces/inkscape"
   xmlns:sodipodi="http://sodipodi.sourceforge.net/DTD/sodipodi-0.dtd"
   xmlns="http://www.w3.org/2000/svg"
   xmlns:svg="http://www.w3.org/2000/svg"><defs
   id="defs21"><inkscape:path-effect
     effect="fillet_chamfer"
     id="path-effect1"
     is_visible="true"
     lpeversion="1"
     nodesatellites_param="F,0,0,1,0,0,0,1 @ F,0,0,1,0,0,0,1 @ F,0,0,1,0,0,0,1 @ F,0,0,1,0,0,0,1 @ F,0,0,1,0,0,0,1 @ F,0,0,1,0,0,0,1 @ F,0,0,1,0,0,0,1"
     radius="0"
     unit="px"
     method="auto"
     mode="F"
     chamfer_steps="1"
     flexible="false"
     use_knot_distance="true"
     apply_no_radius="true"
     apply_with_radius="true"
     only_selected="false"
     hide_knots="false" /></defs><sodipodi:namedview
   id="namedview21"
   pagecolor="#505050"
   bordercolor="#eeeeee"
   borderopacity="1"
   inkscape:showpageshadow="0"
   inkscape:pageopacity="0"
   inkscape:pagecheckerboard="0"
   inkscape:deskcolor="#505050"
   inkscape:zoom="19.539574"
   inkscape:cx="9.237663"
   inkscape:cy="18.987108"
   inkscape:window-width="1920"
   inkscape:window-height="1008"
   inkscape:window-x="0"
   inkscape:window-y="0"
   inkscape:window-maximized="1"
   inkscape:current-layer="svg21"
   showgrid="false" />
    
    
<path
   id="rect1"
   style="fill:#d59300;fill-opacity:1;stroke-width:5.03937;stroke-linecap:round;stroke-dasharray:5.03937, 10.0787"
   d="M 2.0920503,0 H 12.260657 c 2.376848,0 2.78249,3.3086538 4.840746,3.3086538 V 21.90795 C 17.101403,23.066945 16.168348,24 15.009353,24 H 2.0920503 C 0.9330544,24 0,23.066945 0,21.90795 V 2.0920503 C 0,0.9330544 0.9330544,0 2.0920503,0 Z"
   sodipodi:nodetypes="sscssssss" /><path
   id="rect1-3"
   style="fill:#efb931;fill-opacity:1;stroke-width:5.03937;stroke-linecap:round;stroke-dasharray:5.03937, 10.0787"
   d="m 21.90795,3.3086538 c 1.158995,0 2.09205,0.970132 2.09205,2.129128 V 21.90795 C 24,23.066945 23.066945,24 21.90795,24 H 2.0920503 C 0.9330544,24 0,23.066945 0,21.90795 V 5.8451469 h 12.474866 c 1.931189,0 2.388949,-2.5364931 4.264377,-2.5364931 z"
   sodipodi:nodetypes="sssssccccs" /><path
   id="rect2-0-4"
   style="clip-rule:evenodd;fill:#d59300;fill-opacity:1;fill-rule:evenodd;stroke-width:4.55541;stroke-linecap:round;stroke-linejoin:round;stroke-miterlimit:2;stroke-dasharray:4.55541, 9.11087"
   d="m 8.89743,16.017597 c -1.35668,0.966797 -2.2393875,2.552602 -2.2393875,4.352707 v 0.794317 H 17.341958 v -0.794317 c 0,-1.800105 -0.882708,-3.38591 -2.239388,-4.352707 A 4.7253245,4.7253245 0 0 1 12.000366,17.179922 4.7253245,4.7253245 0 0 1 8.89743,16.017597 Z" /><circle
   style="clip-rule:evenodd;fill:#d59300;fill-opacity:1;fill-rule:evenodd;stroke-width:2.82037;stroke-linecap:round;stroke-linejoin:round;stroke-miterlimit:2;stroke-dasharray:2.82037, 5.64074"
   id="path2-9-3"
   cx="12.00001"
   cy="12.454342"
   r="3.7026794" /></svg>
