<?xml version="1.0" encoding="UTF-8" standalone="no"?>
<svg
   width="24"
   height="24"
   viewBox="0 0 24 24"
   version="1.1"
   xml:space="preserve"
   style="clip-rule:evenodd;fill-rule:evenodd;stroke-linejoin:round;stroke-miterlimit:2"
   id="svg21"
   sodipodi:docname="import-file.svg"
   inkscape:version="1.2.2 (b0a8486541, 2022-12-01)"
   xmlns:inkscape="http://www.inkscape.org/namespaces/inkscape"
   xmlns:sodipodi="http://sodipodi.sourceforge.net/DTD/sodipodi-0.dtd"
   xmlns="http://www.w3.org/2000/svg"
   xmlns:svg="http://www.w3.org/2000/svg"><defs
   id="defs21" /><sodipodi:namedview
   id="namedview21"
   pagecolor="#505050"
   bordercolor="#eeeeee"
   borderopacity="1"
   inkscape:showpageshadow="0"
   inkscape:pageopacity="0"
   inkscape:pagecheckerboard="0"
   inkscape:deskcolor="#505050"
   inkscape:zoom="2.4328768"
   inkscape:cx="-158.04335"
   inkscape:cy="18.907657"
   inkscape:window-width="1920"
   inkscape:window-height="1008"
   inkscape:window-x="0"
   inkscape:window-y="0"
   inkscape:window-maximized="1"
   inkscape:current-layer="svg21"
   showgrid="false" />
    
    
<path
   id="rect2"
   style="fill:#f6ffcb;fill-opacity:1;stroke:none;stroke-width:4.61974;stroke-linecap:round;stroke-linejoin:round;stroke-dasharray:none;stroke-opacity:1;paint-order:stroke fill markers"
   d="m 7.690818,1.7086022 c -2.3346066,0 -4.2730037,1.9395012 -4.2730037,4.2741075 V 8.3665382 H 7.21604 V 5.9827097 c 0,-0.2957009 0.179077,-0.4747781 0.474778,-0.4747781 h 12.035074 c 0.295702,0 0.474777,0.1790772 0.474777,0.4747781 V 18.017783 c 0,0.295702 -0.179075,0.474779 -0.474777,0.474779 H 7.690818 c -0.295701,0 -0.474778,-0.179077 -0.474778,-0.474779 V 15.632851 H 3.4178143 v 2.384932 c 0,2.334607 1.9383971,4.273004 4.2730037,4.273004 H 19.725892 C 22.060499,22.290787 24,20.35239 24,18.017783 V 5.9827097 C 24,3.6481034 22.060499,1.7086022 19.725892,1.7086022 Z"
   sodipodi:nodetypes="ssccssssssssccsssssss" /><path
   id="path1"
   style="fill:#f6ffcb;fill-opacity:1;stroke:none;stroke-width:4.76916;stroke-linecap:round;stroke-linejoin:round;stroke-dasharray:none;stroke-opacity:1;paint-order:stroke fill markers"
   d="M 11.296949,6.5592447 V 10.579498 H -5e-7 v 1.420501 1.420503 H 11.296949 v 4.020253 l 5.545079,-5.440756 z" /></svg>
