<?xml version="1.0" encoding="UTF-8" standalone="no"?>
<svg
   width="42"
   height="42"
   viewBox="0 0 42 42"
   version="1.1"
   xml:space="preserve"
   style="clip-rule:evenodd;fill-rule:evenodd;stroke-linejoin:round;stroke-miterlimit:2"
   id="svg21"
   sodipodi:docname="play-big.svg"
   inkscape:version="1.2.2 (b0a8486541, 2022-12-01)"
   xmlns:inkscape="http://www.inkscape.org/namespaces/inkscape"
   xmlns:sodipodi="http://sodipodi.sourceforge.net/DTD/sodipodi-0.dtd"
   xmlns="http://www.w3.org/2000/svg"
   xmlns:svg="http://www.w3.org/2000/svg"><defs
   id="defs21" /><sodipodi:namedview
   id="namedview21"
   pagecolor="#505050"
   bordercolor="#eeeeee"
   borderopacity="1"
   inkscape:showpageshadow="0"
   inkscape:pageopacity="0"
   inkscape:pagecheckerboard="0"
   inkscape:deskcolor="#505050"
   inkscape:zoom="2.4328768"
   inkscape:cx="-23.018017"
   inkscape:cy="-41.925674"
   inkscape:window-width="1920"
   inkscape:window-height="1008"
   inkscape:window-x="0"
   inkscape:window-y="0"
   inkscape:window-maximized="1"
   inkscape:current-layer="svg21"
   showgrid="false" />
    
    
<g
   id="path5-5-0-6"
   transform="matrix(0.65989884,0,0,0.65989884,-1373.9922,-1014.6492)"
   style="fill:#3da638;fill-opacity:1;stroke-width:0.568514"><path
     id="path6-8-2-8"
     style="color:#000000;fill:#3da638;fill-opacity:1;stroke-width:0.568514;stroke-linecap:round;stroke-linejoin:round;-inkscape-stroke:none;paint-order:stroke fill markers"
     d="m 2089.006,1537.64 a 3.779878,3.779878 0 0 0 -1.2355,0.4493 3.779878,3.779878 0 0 0 -1.8881,3.2723 v 10.0232 l 10.0385,11.7445 a 3.5759509,7.2462264 0 0 1 0,12.5488 l -10.0385,11.7444 v 10.0263 a 3.779878,3.779878 0 0 0 5.6673,3.2753 l 48.5744,-28.0451 a 3.779878,3.779878 0 0 0 0,-6.5476 l -48.5744,-28.0421 a 3.779878,3.779878 0 0 0 -2.5437,-0.4493 z" /></g></svg>
